<svg width="99" height="46" viewBox="0 0 99 46" fill="none" xmlns="http://www.w3.org/2000/svg">
    <path d="M26.9655 11.1034H14.6896C13.5851 11.1034 12.6896 11.9989 12.6896 13.1034V46H0V4C0 1.79086 1.79086 0 4 0H26.9655V11.1034Z"
            fill="#222222" />
    <path d="M17.9769 34.8965L30.2528 34.8965C31.3574 34.8965 32.2528 34.0011 32.2528 32.8965L32.2528 -3.16269e-05L44.9424 -3.05176e-05L44.9424 41.9999C44.9424 44.2091 43.1516 45.9999 40.9424 45.9999L17.9769 45.9999L17.9769 34.8965Z"
            fill="#222222" />
    <path fill-rule="evenodd" clip-rule="evenodd"
            d="M50.2298 46V0H62.9195V15.7126C62.9195 16.8172 63.8149 17.7126 64.9195 17.7126H84.2011C92.0124 17.7126 98.3447 24.045 98.3447 31.8563C98.3447 39.6676 92.0124 46 84.2011 46H50.2298ZM62.6551 35.6896H84.0689C86.113 35.6896 87.77 34.0326 87.77 31.9885C87.77 29.9444 86.113 28.2873 84.0689 28.2873H62.6551V35.6896Z"
            fill="#222222" />
</svg>
