<?xml version="1.0" standalone="no"?>
<!DOCTYPE svg PUBLIC "-//W3C//DTD SVG 20010904//EN"
 "http://www.w3.org/TR/2001/REC-SVG-20010904/DTD/svg10.dtd">
<svg version="1.0" xmlns="http://www.w3.org/2000/svg"
 width="1584.000000pt" height="1584.000000pt" viewBox="0 0 1584.000000 1584.000000"
 preserveAspectRatio="xMidYMid meet">
<metadata>
Created by potrace 1.14, written by Peter Selinger 2001-2017
</metadata>
<g transform="translate(0.000000,1584.000000) scale(0.100000,-0.100000)"
fill="#000000" stroke="none">
<path d="M480 11579 c-36 -10 -72 -22 -80 -26 -8 -3 -17 -7 -20 -7 -57 -11
-280 -205 -280 -244 0 -5 -7 -15 -15 -22 -9 -7 -13 -15 -10 -18 3 -3 -1 -12
-8 -21 -8 -9 -22 -41 -32 -71 -9 -30 -20 -64 -23 -75 -4 -11 -8 -1558 -9
-3437 l-3 -3418 1015 0 1015 0 1 2653 c1 1458 2 2657 3 2662 19 98 105 214
173 231 13 4 23 9 23 13 0 4 6 8 13 9 6 1 26 4 42 7 17 4 480 7 1030 8 l999 2
1 888 0 887 -1885 -1 c-1822 -1 -1887 -1 -1950 -20z"/>
<path d="M5161 11565 c-2 -45 -2 -41 -2 -165 0 -58 0 -114 0 -125 0 -15 0
-359 0 -480 0 -5 0 -75 0 -155 0 -80 0 -154 0 -165 0 -111 0 -473 0 -485 0 -8
0 -116 0 -240 0 -124 0 -232 0 -240 0 -8 0 -116 0 -240 0 -124 0 -232 0 -240
0 -8 0 -116 0 -240 0 -124 0 -232 0 -240 0 -8 0 -116 0 -240 0 -124 0 -232 0
-240 0 -8 0 -116 0 -240 0 -124 0 -232 0 -240 0 -8 0 -116 0 -240 0 -124 0
-232 0 -240 0 -8 0 -116 0 -240 0 -124 0 -232 0 -240 1 -102 -1 -320 -3 -335
-16 -126 -108 -232 -233 -267 -26 -8 -353 -11 -1043 -12 l-1005 -1 0 -885 0
-885 1889 -2 c1481 -2 1893 0 1904 10 8 6 17 11 19 9 7 -6 79 11 108 26 17 8
38 19 49 24 142 72 257 205 313 363 l28 80 3 3423 2 3422 -1014 0 -1014 0 -1
-35z"/>
<path d="M8036 7932 c1 -2017 2 -3673 3 -3680 1 -10 549 -12 2829 -9 1555 2
2841 6 2857 9 17 4 47 9 69 12 21 3 57 8 80 11 22 4 59 11 81 17 22 6 53 12
70 15 37 6 255 79 315 106 94 41 235 110 240 116 3 4 19 13 35 21 30 15 166
103 195 127 8 7 31 25 51 40 119 93 239 207 324 308 22 26 50 59 63 74 12 14
54 73 93 131 38 58 73 110 77 116 27 39 142 269 142 284 0 7 6 24 14 38 13 25
65 168 70 196 2 6 8 29 14 51 6 22 14 55 17 74 3 19 8 38 11 42 3 5 7 29 10
55 2 26 6 50 9 53 5 9 16 102 19 158 1 24 4 45 7 47 11 11 -1 372 -15 456 -2
14 -10 59 -17 100 -15 89 -12 73 -28 140 -28 120 -85 284 -139 403 -17 37 -32
71 -32 75 -1 4 -7 14 -14 22 -7 8 -23 35 -35 60 -25 49 -157 251 -187 287 -11
11 -35 41 -53 65 -36 45 -235 245 -286 288 -100 83 -259 190 -380 255 -38 21
-76 42 -82 48 -7 5 -13 6 -13 2 0 -3 -15 2 -32 13 -77 46 -356 138 -508 167
-48 9 -91 15 -135 21 -27 3 -68 8 -90 11 -22 3 -785 6 -1695 7 -910 2 -1666 6
-1680 10 -34 11 -92 38 -108 51 -60 47 -100 104 -122 172 -11 35 -13 273 -13
1323 l0 1280 -1016 0 -1016 0 1 -3668z m5482 -862 c28 -2 52 -8 52 -12 0 -5 4
-7 9 -3 27 16 201 -71 272 -137 76 -70 159 -207 173 -283 3 -16 8 -43 11 -60
22 -101 -4 -268 -58 -365 -25 -46 -96 -142 -116 -156 -9 -7 -29 -24 -46 -39
-41 -35 -180 -102 -235 -112 -25 -4 -835 -8 -1800 -8 l-1755 0 -1 580 c0 319
1 585 3 590 3 9 3344 13 3491 5z"/>
</g>
</svg>
